<?xml version="1.0" encoding="utf-8"?>
<!-- Svg Vector Icons : http://www.onlinewebfonts.com/icon -->
<!DOCTYPE svg PUBLIC "-//W3C//DTD SVG 1.1//EN" "http://www.w3.org/Graphics/SVG/1.1/DTD/svg11.dtd">
<svg version="1.1" xmlns="http://www.w3.org/2000/svg" xmlns:xlink="http://www.w3.org/1999/xlink" x="0px" y="0px" viewBox="0 0 256 256" enable-background="new 0 0 256 256" xml:space="preserve">
<metadata> Svg Vector Icons : http://www.onlinewebfonts.com/icon </metadata>
<g><g><g><path fill="#000000" d="M26.7,69.8c-7.8,2.1-13.9,8.3-15.9,16.2c-1,4-1,80.1,0,84.1c2.1,8,8.2,14.1,16.1,16.2c2.4,0.6,14.2,0.7,101.1,0.7c85.7,0,98.7-0.1,101-0.7c8-2.1,14.1-8.2,16.2-16.1c1.1-4.1,1.1-80.2,0-84.3c-2.1-7.9-8.2-14-16.2-16.1C225.1,68.7,30.5,68.8,26.7,69.8z M227.7,85c0.7,0.5,1.7,1.5,2.2,2.2c1,1.2,1,1.6,1,40.8c0,39.2,0,39.6-1,40.8c-0.5,0.7-1.5,1.7-2.2,2.2l-1.2,1H128H29.5l-1.2-1c-0.7-0.5-1.7-1.5-2.2-2.2c-1-1.2-1-1.7-1.1-39.6c-0.1-21.1,0-39,0.1-39.8c0.3-1.8,2.3-4.2,4.1-5c1.2-0.5,18.6-0.6,99.4-0.5l98,0.1L227.7,85z"/><path fill="#000000" d="M54.9,108.9c-1.3,1.1-1.3,1.2-1.4,6.9l-0.2,5.8l-4.7-2.7c-2.6-1.5-5.2-2.7-5.9-2.7c-1.3,0-2.9,1.3-3.4,2.8c-0.6,2.1,0.6,3.5,5.5,6.3c2.7,1.5,4.8,2.8,4.8,2.9c0,0.1-2.1,1.4-4.8,2.9c-5.3,3-6.3,4.2-5.3,6.7c0.6,1.3,2.2,2.3,3.6,2.3c0.4,0,2.9-1.2,5.5-2.7l4.7-2.7l0.2,5.8c0.1,5.7,0.1,5.8,1.4,6.9c1.6,1.3,3,1.4,4.7,0.1c1.2-0.9,1.2-1,1.2-6.9c0-3.3,0.1-5.9,0.2-5.9c0.1,0,2.3,1.2,5,2.8c2.6,1.5,5.2,2.8,5.8,2.8c1.6,0,3.5-1.9,3.5-3.6c0-2-0.9-2.9-5.9-5.7c-2.4-1.3-4.3-2.5-4.3-2.7c0-0.1,1.9-1.3,4.3-2.7c5-2.8,5.9-3.7,5.9-5.7c0-1.7-1.9-3.6-3.5-3.6c-0.6,0-3.2,1.2-5.8,2.8c-2.6,1.5-4.9,2.8-5,2.8c0,0-0.1-2.7-0.1-5.9c0-5.9,0-6-1.2-6.9C57.9,107.4,56.5,107.5,54.9,108.9z"/><path fill="#000000" d="M102.1,108.6c-1,0.8-1.1,1.3-1.3,6.9l-0.2,6l-4.8-2.7c-2.7-1.5-5.2-2.7-5.8-2.7c-0.6,0-1.5,0.4-2.2,1c-0.9,0.7-1.2,1.3-1.2,2.7c0,2.1,0.6,2.7,6.5,6c2,1.1,3.6,2.1,3.6,2.3c0,0.1-1.5,1.1-3.3,2.1c-5.9,3.3-6.8,4.1-6.8,6.2c0,1.4,0.3,2,1.2,2.8c0.7,0.6,1.7,1,2.2,1c0.6,0,3.1-1.2,5.8-2.8l4.8-2.7l0.2,6c0.2,5.6,0.3,6.1,1.3,6.9c1.4,1.2,3.3,1.1,4.6,0c1.3-1.2,1.5-2,1.6-7.9l0.1-4.9l4.6,2.7c2.5,1.5,5.2,2.7,5.9,2.7c2.6,0,4.3-3.2,3.1-5.5c-0.3-0.5-2.5-2-5.1-3.5c-2.5-1.4-4.6-2.8-4.6-2.9c0-0.2,2.1-1.5,4.6-2.9c2.5-1.5,4.8-3,5.1-3.5c1.2-2.3-0.5-5.5-3.1-5.5c-0.7,0-3.3,1.2-5.9,2.7l-4.6,2.7l-0.1-4.9c-0.1-5.9-0.3-6.7-1.6-7.9C105.5,107.5,103.5,107.5,102.1,108.6z"/><path fill="#000000" d="M149.3,108.7c-1.3,1.2-1.5,2-1.6,7.9l-0.1,4.9l-4.6-2.7c-2.5-1.5-5.2-2.7-5.9-2.7c-2.6,0-4.3,3.2-3.1,5.5c0.3,0.5,2.5,2,5.1,3.5c2.5,1.4,4.6,2.8,4.6,2.9c0,0.2-2.1,1.5-4.6,2.9c-2.5,1.5-4.8,3-5.1,3.5c-1.2,2.3,0.5,5.5,3.1,5.5c0.7,0,3.4-1.2,5.9-2.7l4.6-2.7l0.1,4.9c0.1,5.8,0.3,6.7,1.6,7.9c1.2,1.2,3.2,1.2,4.6,0c1-0.8,1.1-1.3,1.3-6.9l0.2-6l4.8,2.7c2.7,1.5,5.3,2.7,5.8,2.7c0.6,0,1.5-0.4,2.2-1c0.9-0.7,1.2-1.3,1.2-2.7c0-2.1-0.6-2.7-6.5-6c-2-1.1-3.6-2.1-3.6-2.3c0-0.1,1.6-1.2,3.6-2.3c5.9-3.4,6.5-4,6.5-6c0-1.4-0.3-2-1.2-2.7c-0.7-0.6-1.7-1-2.2-1c-0.6,0-3.1,1.2-5.8,2.7l-4.8,2.7l-0.2-6c-0.2-5.6-0.3-6-1.3-6.9C152.4,107.5,150.5,107.5,149.3,108.7z"/><path fill="#000000" d="M196.4,108.7c-1.2,0.9-1.2,1-1.2,6.9c0,3.3-0.1,5.9-0.2,5.9c-0.1,0-2.3-1.2-5-2.8c-2.6-1.5-5.2-2.8-5.8-2.8s-1.7,0.6-2.5,1.4c-1.1,1.2-1.3,1.7-1.1,2.7c0.5,1.8,1.3,2.6,6,5.3c2.4,1.3,4.3,2.5,4.3,2.7c0,0.1-2,1.3-4.4,2.7c-4.5,2.5-6.2,4.1-6.2,5.7c0,1.2,2.5,3.6,3.8,3.6c0.6,0,3.2-1.2,5.8-2.8c2.6-1.5,4.8-2.8,5-2.8c0.1,0,0.2,2.7,0.2,5.9c0,5.9,0,6,1.2,6.9c1.6,1.3,3.1,1.2,4.7-0.1c1.3-1.1,1.3-1.2,1.4-6.9l0.2-5.8l4.7,2.7c2.6,1.5,5.2,2.7,5.8,2.7c1.2,0,3.7-2.4,3.7-3.4c0-1.8-1.2-3-5.8-5.6c-2.6-1.5-4.7-2.8-4.7-2.9c0-0.1,2-1.4,4.4-2.8c4.9-2.8,6.4-4.3,5.9-6.2c-0.4-1.6-2-3-3.5-3c-0.7,0-3.3,1.2-5.9,2.7l-4.7,2.7l-0.2-5.8c-0.1-5.7-0.1-5.8-1.4-6.9C199.5,107.5,198,107.4,196.4,108.7z"/></g></g></g>
</svg>